<?xml version="1.0" standalone="no"?>
<!DOCTYPE svg PUBLIC "-//W3C//DTD SVG 1.1//EN" "http://www.w3.org/Graphics/SVG/1.1/DTD/svg11.dtd">
<svg xmlns="http://www.w3.org/2000/svg">
<defs >
<font id="Syne" horiz-adv-x="550" ><font-face
    font-family="Syne ExtraBold"
    units-per-em="1000"
    panose-1="0 0 0 0 0 0 0 0 0 0"
    ascent="925"
    descent="-275"
    alphabetic="0" />
<glyph unicode=" " horiz-adv-x="310" />
<glyph unicode="!" horiz-adv-x="394" d="M72 690H322V204H72V690ZM324 151V0H70V151H324Z" />
<glyph unicode="&quot;" horiz-adv-x="604" d="M210 436H90L25 553V660H275V553L210 436ZM514 436H394L329 553V660H579V553L514 436Z" />
<glyph unicode="#" horiz-adv-x="1392" d="M842 640H1092V0H842V640ZM300 640H550V0H300V640ZM1332 261V111H60V261H1332ZM1332 529V379H60V529H1332Z" />
<glyph unicode="$" horiz-adv-x="857" d="M466 699L530 689L506 550L442 560L466 699ZM331 -59L356 80L420 69L395 -70L331 -59ZM46 241H267Q281 216 320 206T433 195Q490 195 517 201T553 217T562 238Q562 255 544 262T481 270T360 272Q288 272 231 278T133 299T71
339T50 404Q50 452 81 484T165 535T287 562T433 570Q559 570 639 545T757 476T794 380H579Q569 405 538 415T433 425Q364 425 332 415T300 381Q300 366 315 359T374 349T502 346Q560 346 615 342T715 325T786 285T812 210Q812 153 766 118T634 67T433 50Q307 50
229 70T111 120T57 183T46 241Z" />
<glyph unicode="%" horiz-adv-x="1297" d="M317 325Q226 325 162 342T64 398T30 498Q30 590 105 631T317 672Q452 672 526 631T601 498Q601 436 568 398T471 343T317 325ZM317 425Q376 425 406 443T437 498Q437 533 407 552T317 572Q257 572 225 553T193 498Q193
462 224 444T317 425ZM983 -17Q847 -17 772 23T696 156Q696 248 771 289T983 330Q1119 330 1193 289T1267 156Q1267 63 1193 23T983 -17ZM983 83Q1042 83 1073 101T1104 156Q1104 191 1073 210T983 230Q924 230 892 211T860 156Q860 120 891 102T983 83ZM813 686L867
656L485 -34L433 -2L813 686Z" />
<glyph unicode="&amp;" horiz-adv-x="1220" d="M384 -15Q314 -15 251 -4T140 30T63 87T35 168Q35 221 68 252T160 299T301 321T479 328L480 322Q388 323 311 329T176 352T87 398T55 474Q55 539 110 580T269 640T519 660Q623 660 712 645T867 599T970 519T1007
403H768Q764 436 700 453T529 470Q418 470 367 458T315 413Q315 391 339 378T419 359T575 353H1200V283H1009V0H783Q780 17 777 47T771 116T768 201L785 189Q774 161 750 127T682 60T566 6T384 -15ZM504 139Q599 139 657 152T742 188T769 238V283H575Q441 283 371
273T300 218Q300 186 350 163T504 139Z" />
<glyph unicode="&apos;" horiz-adv-x="300" d="M210 436H90L25 553V660H275V553L210 436Z" />
<glyph unicode="(" horiz-adv-x="405" d="M345 -97L269 -173Q269 -173 248 -154T196 -97T134 -4T81 124T60 286Q60 375 81 446T133 572T196 662T248 716T269 735L345 659Q345 659 325 636T278 567T231 450T210 286Q210 205 223 143T257 35T298 -40T331 -83T345 -97Z" />
<glyph unicode=")" horiz-adv-x="405" d="M60 -97Q60 -97 73 -83T107 -40T147 34T181 142T195 286Q195 380 175 450T128 566T81 636T60 659L136 735Q136 735 157 717T209 662T272 572T324 447T345 286Q345 197 324 125T272 -3T210 -96T157 -153T136 -173L60 -97Z" />
<glyph unicode="*" horiz-adv-x="666" d="M595 655L646 496L450 446L573 296L438 198L328 370L219 199L85 296L212 449L20 499L71 657L256 585L243 781H410L396 576L595 655Z" />
<glyph unicode="+" horiz-adv-x="780" d="M50 345H730V195H50V345ZM485 480V60H295V480H485Z" />
<glyph unicode="," horiz-adv-x="303" d="M53 -167L39 -105Q55 -97 72 -70T93 -11L25 0V153H278V60Q278 -31 225 -92T53 -167Z" />
<glyph unicode="-" horiz-adv-x="590" d="M80 347H510V197H80V347Z" />
<glyph unicode="." horiz-adv-x="354" d="M304 151V0H50V151H304Z" />
<glyph unicode="/" horiz-adv-x="622" d="M393 821L572 756L229 -186L50 -121L393 821Z" />
<glyph unicode="0" horiz-adv-x="1066" d="M535 -15Q376 -15 271 11T113 94T60 244Q60 337 112 394T270 478T535 505Q693 505 797 479T954 395T1006 244Q1006 151 954 94T798 11T535 -15ZM535 135Q609 135 659 147T735 184T761 244Q761 280 736 304T660 342T536
355Q461 355 410 343T332 305T305 244Q305 208 331 184T408 148T535 135Z" />
<glyph unicode="1" horiz-adv-x="529" d="M25 300V490H459V0H219V300H25Z" />
<glyph unicode="2" horiz-adv-x="1003" d="M759 150L542 122L541 132L1218 155V0H328V125Q487 153 607 175T806 217T926 256T966 299Q966 315 949 322T888 333T760 336Q654 336 600 320T541 268H291Q291 342 345 395T505 476T769 505Q862 505 943 498T1087 471T1184
419T1219 333Q1219 287 1185 257T1089 208T943 176T759 150Z" />
<glyph unicode="3" horiz-adv-x="1055" d="M582 171L580 176Q676 176 756 172T896 154T987 110T1020 27Q1020 -39 960 -83T787 -149T521 -171Q365 -171 257 -143T92 -59T35 77H286Q288 55 319 43T404 25T521 19Q640 19 697 28T755 77Q755 115 685 124T480 133H331V203H480Q579
203 636 208T716 227T740 263Q740 295 689 307T526 320Q420 320 356 303T287 252H38Q38 319 76 368T181 448T337 495T526 510Q678 510 783 491T944 432T1000 333Q1000 284 969 253T882 205T750 180T582 171Z" />
<glyph unicode="4" horiz-adv-x="1094" d="M900 495V-145H660V391L751 341L308 57L291 115H676V-35H50V115L660 495H900ZM884 -35V115H1064V-35H884Z" />
<glyph unicode="5" horiz-adv-x="1015" d="M650 236Q712 236 768 228T869 198T939 141T965 51Q965 -24 916 -73T770 -146T526 -170Q431 -170 346 -156T196 -113T93 -44T55 47H275Q278 33 312 22T398 6T509 0Q547 0 585 1T655 7T706 23T725 54Q725 75 706 86T654
103T584 109T509 110Q464 110 416 107T330 99T272 89L74 124L124 500H883V310H340L316 134L284 138Q310 162 366 184T496 221T650 236Z" />
<glyph unicode="6" horiz-adv-x="1133" d="M692 440Q826 440 916 411T1052 331T1098 214Q1098 148 1047 95T888 11T610 -20Q420 -20 291 4T96 77T30 202Q30 226 41 258T92 325Q97 330 120 349T179 397T254 459T333 524T404 582T456 624T476 640H814L180 202L117
152Q195 222 260 276T390 366T527 421T692 440ZM588 151Q714 151 781 167T848 219Q848 252 781 271T588 290Q446 290 363 271T280 219Q280 183 363 167T588 151Z" />
<glyph unicode="7" horiz-adv-x="1153" d="M60 300V490H1073V300L568 -150H241L834 371L861 300H60Z" />
<glyph unicode="8" horiz-adv-x="1081" d="M540 339Q366 339 262 352T111 398T64 484Q64 539 110 578T261 638T540 660Q715 660 819 639T970 578T1017 484Q1017 430 971 398T820 353T540 339ZM540 379Q634 379 684 386T753 405T772 432Q772 447 753 457T684 473T540
478Q447 478 400 473T336 458T319 432Q319 417 335 405T399 386T540 379ZM540 -20Q355 -20 244 6T84 77T35 178Q35 247 86 283T249 332T540 345Q720 345 831 332T994 283T1046 178Q1046 122 997 77T836 6T540 -20ZM540 169Q644 169 700 174T779 191T801 220Q801
237 779 248T701 264T540 270Q437 270 383 265T310 248T290 220Q290 203 309 192T383 175T540 169Z" />
<glyph unicode="9" horiz-adv-x="1158" d="M441 60Q307 60 217 89T81 169T35 286Q35 358 88 409T257 487T564 515Q754 515 878 492T1062 422T1123 298Q1123 267 1106 233T1046 160Q1042 156 1020 137T965 90T892 30T815 -34T746 -92T695 -134T676 -150H339L972
298L1036 338Q958 272 891 220T757 133T613 79T441 60ZM564 350Q422 350 354 336T285 281Q285 244 353 227T564 210Q706 210 789 227T873 281Q873 308 835 323T728 344T564 350Z" />
<glyph unicode=":" horiz-adv-x="354" d="M304 151V0H50V151H304ZM304 513V362H50V513H304Z" />
<glyph unicode=";" horiz-adv-x="354" d="M304 479V328H50V479H304ZM79 -127L65 -65Q81 -57 98 -30T119 29L51 40V193H304V100Q304 9 251 -52T79 -127Z" />
<glyph unicode="&lt;" horiz-adv-x="532" d="M382 548L452 410L201 289L452 174L382 25L40 211V362L382 548Z" />
<glyph unicode="=" horiz-adv-x="840" d="M50 480H790V330H50V480ZM50 225H790V75H50V225Z" />
<glyph unicode="&gt;" horiz-adv-x="552" d="M80 410L150 548L492 362V211L150 25L80 174L331 289L80 410Z" />
<glyph unicode="?" horiz-adv-x="864" d="M286 201V351H422Q506 351 540 369T574 426Q574 472 537 488T422 505Q364 505 334 497T292 476T276 454H41Q38 475 46 506T77 572T145 636T257 686T422 705Q536 705 613 685T737 629T804 543T824 436Q824 358 782 306T670
227T516 201V201H286ZM284 0V151H538V0H284Z" />
<glyph unicode="@" horiz-adv-x="1498" d="M725 -87Q501 -87 347 -41T114 97T35 320Q35 455 116 538T357 661T749 700Q985 700 1143 661T1382 538T1463 320Q1463 233 1431 181T1341 106T1206 82Q1130 82 1079 100T999 150T958 217T945 290V491H1185V316Q1185 285
1190 260T1211 219T1258 204Q1290 204 1306 219T1327 258T1333 308Q1333 395 1293 451T1177 540T994 586T755 600Q622 600 513 587T327 542T207 456T165 320Q165 220 230 152T420 48T728 13Q793 13 854 17T963 27T1038 39L1077 -58Q1048 -64 994 -71T871 -82T725
-87ZM594 97Q497 97 422 123T305 198T262 313Q262 378 303 426T419 500T593 526Q704 526 788 496T918 417T965 313Q965 272 939 233T863 164T745 115T594 97ZM682 246Q726 246 772 249T858 260T921 280T945 312Q945 330 921 342T857 362T772 373T682 376Q596 376
554 363T511 311Q511 274 553 260T682 246Z" />
<glyph unicode="A" horiz-adv-x="1160" d="M234 97V247H918V97H234ZM10 0L439 640H717L1150 0H875L504 573H653L285 0H10Z" />
<glyph unicode="B" horiz-adv-x="1140" d="M70 0V640H700Q894 640 986 602T1078 470Q1078 410 1039 378T926 334T749 318L757 326Q832 326 896 322T1008 304T1083 261T1110 181Q1110 119 1066 79T941 20T750 0H70ZM320 188H750Q803 188 826 198T850 230Q850 245
840 254T807 267T750 272H320V188ZM320 368H708Q761 368 784 378T808 410Q808 433 785 442T708 452H320V368Z" />
<glyph unicode="C" horiz-adv-x="1316" d="M1255 267Q1250 172 1186 108T998 12T683 -20Q538 -20 423 -5T227 48T103 151T60 315Q60 414 103 480T227 586T423 643T683 660Q873 660 998 626T1187 524T1256 361H996Q984 393 952 417T856 456T683 470Q555 470 475
455T358 405T321 315Q321 264 358 232T475 185T683 170Q792 170 855 183T951 218T995 267H1255Z" />
<glyph unicode="D" horiz-adv-x="1302" d="M790 640Q925 640 1013 614T1151 543T1221 441T1242 320Q1242 257 1219 200T1144 97T1005 26T790 0H70V640H790ZM320 200H780Q836 200 875 207T937 230T971 267T982 320Q982 350 972 372T938 410T875 432T780 440H320V200Z" />
<glyph unicode="E" horiz-adv-x="1140" d="M320 270V190H1080V0H70V640H1078V450H320V370H940V270H320Z" />
<glyph unicode="F" horiz-adv-x="1128" d="M1078 640V450H320V365H940V195H320V0H70V640H1078Z" />
<glyph unicode="G" horiz-adv-x="1340" d="M653 -20Q523 -20 415 -5T227 48T104 151T60 315Q60 414 104 480T230 586T427 643T683 660Q868 660 993 626T1185 530T1256 381H996Q984 403 952 423T856 457T683 470Q555 470 475 455T358 405T321 315Q321 266 359 234T481
186T703 170Q800 170 871 178T1001 205T1118 250L1142 221Q1080 104 958 42T653 -20ZM1074 0Q1074 30 1082 68T1102 147T1127 226H737V331H1270V0H1074Z" />
<glyph unicode="H" horiz-adv-x="1280" d="M284 419H988V229H284V419ZM960 640H1210V0H960V640ZM70 640H320V0H70V640Z" />
<glyph unicode="I" horiz-adv-x="420" d="M85 640H335V0H85V640Z" />
<glyph unicode="J" horiz-adv-x="1004" d="M684 329V640H934V299Q934 242 909 188T829 88T689 17T484 -10Q401 -10 321 5T175 56T71 149T31 294H271Q285 232 335 206T484 180Q567 180 610 199T668 252T684 329Z" />
<glyph unicode="K" horiz-adv-x="1215" d="M603 315V371L1180 0H808L318 340L770 640H1126L603 315ZM70 640H320V0H70V640Z" />
<glyph unicode="L" horiz-adv-x="943" d="M320 640V190H903V0H70V640H320Z" />
<glyph unicode="M" horiz-adv-x="1580" d="M864 76H714L1260 640H1510V0H1260V436L1335 405L940 0H640L244 404L320 435V0H70V640H320L864 76Z" />
<glyph unicode="N" horiz-adv-x="1300" d="M1073 196L980 143V640H1230V0H980L227 436L320 490V0H70V640H320L1073 196Z" />
<glyph unicode="O" horiz-adv-x="1330" d="M665 -20Q447 -20 314 18T121 132T60 320Q60 432 120 507T314 621T665 660Q883 660 1016 622T1209 508T1270 320Q1270 208 1210 133T1016 19T665 -20ZM665 170Q768 170 843 182T959 227T1000 320Q1000 380 959 412T843
457T665 470Q562 470 485 458T364 413T320 320Q320 260 363 228T484 183T665 170Z" />
<glyph unicode="P" horiz-adv-x="1177" d="M302 165V340H801Q831 340 851 349T872 390Q872 422 852 431T801 440H318V0H68V640H762Q837 640 902 630T1017 592T1094 516T1122 390Q1122 313 1094 268T1017 201T903 172T762 165H302Z" />
<glyph unicode="Q" horiz-adv-x="1330" d="M545 43H785V-200H545V43ZM665 -20Q447 -20 314 18T121 132T60 320Q60 432 120 507T314 621T665 660Q883 660 1016 622T1209 508T1270 320Q1270 208 1210 133T1016 19T665 -20ZM665 170Q768 170 843 182T959 227T1000
320Q1000 380 959 412T843 457T665 470Q562 470 485 458T364 413T320 320Q320 260 363 228T484 183T665 170Z" />
<glyph unicode="R" horiz-adv-x="1232" d="M70 0V640H843Q934 640 1006 620T1121 551T1164 420Q1164 365 1144 329T1089 273T1009 244T915 233L842 247Q961 246 1025 237T1115 205T1141 137V0H891V107Q891 137 880 152T830 174T711 180H320V0H70ZM320 347H843Q873
347 893 357T914 395Q914 421 894 430T843 440H320V347Z" />
<glyph unicode="S" horiz-adv-x="1056" d="M35 235H308Q315 214 349 200T440 178T574 170Q649 170 692 174T754 190T772 222Q772 241 743 251T640 266T432 270Q332 270 260 279T141 309T72 361T50 437Q50 513 101 562T257 636T519 661Q749 661 870 595T992 403H733Q728
436 671 453T509 471Q405 471 355 459T304 418Q304 403 318 394T366 380T464 372T624 370Q731 370 806 360T927 328T995 275T1016 198Q1016 122 968 74T816 3T544 -20Q449 -20 370 -9T228 23T123 76T58 147T35 235Z" />
<glyph unicode="T" horiz-adv-x="1100" d="M30 640H1070V450H30V640ZM425 463H675V0H425V463Z" />
<glyph unicode="U" horiz-adv-x="1289" d="M969 365V640H1219V320Q1219 235 1188 176T1100 78T971 18T815 -11T645 -20Q554 -20 469 -12T312 18T185 77T101 175T70 320V640H320V365Q320 285 359 243T470 186T645 170Q744 170 817 185T929 243T969 365Z" />
<glyph unicode="V" horiz-adv-x="1160" d="M408 0L20 640H302L633 25H531L862 640H1140L756 0H408Z" />
<glyph unicode="W" horiz-adv-x="1882" d="M378 0L20 640H302L604 45L509 43L792 640H1094L1377 43L1282 45L1584 640H1862L1508 0H1170L894 539H992L716 0H378Z" />
<glyph unicode="X" horiz-adv-x="1140" d="M780 640H1100L650 260L640 252L350 0H30L500 394L507 400L780 640ZM360 640L641 393L647 387L1110 0H790L488 261L484 265L40 640H360Z" />
<glyph unicode="Y" horiz-adv-x="1070" d="M1065 640L660 163V0H410V163L5 640H300L629 225H444L770 640H1065Z" />
<glyph unicode="Z" horiz-adv-x="1200" d="M70 640H1130V450L402 149L394 190H1130V0H70V190L801 491L809 450H70V640Z" />
<glyph unicode="[" d="M490 -47V-197H90V800H490V650H240V-47H490Z" />
<glyph unicode="\" horiz-adv-x="622" d="M229 821L572 -121L393 -186L50 756L229 821Z" />
<glyph unicode="]" d="M60 -47H310V650H60V800H460V-197H60V-47Z" />
<glyph unicode="^" horiz-adv-x="587" d="M421 653V503H167V653H421Z" />
<glyph unicode="_" horiz-adv-x="980" d="M50 -50H930V-200H50V-50Z" />
<glyph unicode="`" horiz-adv-x="722" d="M381 602L100 752H420L622 602H381Z" />
<glyph unicode="a" horiz-adv-x="1063" d="M408 -14Q300 -14 216 16T84 105T35 245Q35 331 83 389T216 476T408 505Q528 505 615 473T750 382T798 245Q798 187 771 140T693 58T570 5T408 -14ZM498 138Q574 138 637 147T739 180T778 245Q778 288 740 311T638 343T498
352Q396 352 340 326T284 245Q284 210 309 186T382 150T498 138ZM778 490H1018V0H792Q792 0 789 23T782 89T778 190V490Z" />
<glyph unicode="b" horiz-adv-x="1098" d="M690 -14Q600 -14 528 4T405 57T327 139T300 245Q300 303 327 351T405 433T528 486T690 505Q798 505 882 476T1015 389T1063 245Q1063 163 1015 105T883 17T690 -14ZM600 138Q668 138 716 150T789 186T814 245Q814 299
758 325T600 352Q524 352 461 343T359 311T320 245Q320 203 358 180T460 148T600 138ZM320 690V190Q320 126 316 75T306 0H80V690H320Z" />
<glyph unicode="c" horiz-adv-x="994" d="M959 213Q959 141 914 90T772 12T520 -15Q365 -15 257 10T92 92T35 244Q35 339 91 396T256 479T520 505Q675 505 771 478T912 400T958 278H738Q722 317 666 338T520 360Q447 360 393 350T310 314T280 244Q280 200 309
175T392 140T520 130Q610 130 666 151T739 213H959Z" />
<glyph unicode="d" horiz-adv-x="1098" d="M408 -14Q300 -14 216 16T84 105T35 245Q35 331 83 389T216 476T408 505Q498 505 570 487T693 434T771 351T798 245Q798 187 771 140T693 58T570 5T408 -14ZM498 138Q574 138 637 147T739 180T778 245Q778 288 740 311T638
343T498 352Q396 352 340 326T284 245Q284 210 309 186T382 150T498 138ZM778 690H1018V0H792Q788 23 783 74T778 190V690Z" />
<glyph unicode="e" horiz-adv-x="994" d="M721 176H957Q948 118 900 75T759 9T523 -15Q372 -15 263 9T94 90T35 244Q35 340 92 397T259 480T523 505Q675 505 772 478T915 391T959 227H279Q284 201 307 179T380 144T513 130Q599 130 654 142T721 176ZM513 360Q407
360 352 337T286 291H726Q719 317 670 338T513 360Z" />
<glyph unicode="f" horiz-adv-x="674" d="M20 460H654V310H20V460ZM423 690H654V530H523Q483 531 462 526T432 506T423 460V0H183V510Q183 570 205 610T280 670T423 690Z" />
<glyph unicode="g" horiz-adv-x="969" d="M449 69Q307 69 215 92T79 163T35 283Q35 350 78 399T212 477T449 505Q478 505 508 505T567 505H949V379Q884 376 818 385T695 411L684 426Q729 412 769 390T835 337T860 263Q860 201 818 158T685 92T449 69ZM662 -215V-188Q662
-158 636 -153T552 -147H273Q202 -147 159 -137T93 -110T63 -73T55 -32Q55 11 87 35T185 70T353 80L449 69Q365 69 332 61T299 27Q299 13 312 7T347 0H642Q741 0 798 -14T878 -63T902 -158V-215H662ZM449 200Q515 200 555 210T614 239T632 279Q632 304 614 322T556
350T449 360Q383 360 342 350T282 322T263 279Q263 257 281 239T341 211T449 200Z" />
<glyph unicode="h" horiz-adv-x="1008" d="M723 0V182Q723 227 705 258T642 304T513 320Q466 320 422 312T342 291T285 267L283 315Q287 330 310 360T379 424T492 481T655 505Q714 505 769 494T867 458T937 389T963 282V0H723ZM55 0V690H295V0H55Z" />
<glyph unicode="i" horiz-adv-x="364" d="M309 747V597H55V747H309ZM62 490H302V0H62V490Z" />
<glyph unicode="j" horiz-adv-x="364" d="M62 490H302V-200H62V490ZM309 747V597H55V747H309Z" />
<glyph unicode="k" horiz-adv-x="942" d="M55 690H295V0H55V690ZM903 490L507 215L512 345L937 0H633L299 279L585 490H903Z" />
<glyph unicode="l" horiz-adv-x="360" d="M60 690H300V0H60V690Z" />
<glyph unicode="m" horiz-adv-x="1654" d="M45 490H285V0H45V490ZM645 505Q704 505 759 493T857 450T927 368T953 237V0H713V207Q713 282 674 313T533 345Q479 345 429 333T338 305T275 272L273 310Q277 328 300 360T369 426T482 482T645 505ZM1301 505Q1360 505
1415 493T1513 450T1583 368T1609 237V0H1369V207Q1369 282 1330 313T1189 345Q1135 345 1085 333T994 305T931 272L929 320Q933 335 959 365T1032 427T1147 482T1301 505Z" />
<glyph unicode="n" horiz-adv-x="998" d="M45 490H285V0H45V490ZM645 505Q704 505 759 493T857 450T927 368T953 237V0H713V207Q713 282 674 313T533 345Q479 345 429 333T338 305T275 272L273 310Q277 328 300 360T369 426T482 482T645 505Z" />
<glyph unicode="o" horiz-adv-x="1016" d="M510 -15Q351 -15 246 11T88 94T35 244Q35 337 87 394T245 478T510 505Q668 505 772 479T929 395T981 244Q981 151 929 94T773 11T510 -15ZM510 130Q584 130 634 142T710 180T736 244Q736 282 711 308T635 347T510 360Q436
360 385 347T307 309T280 244Q280 206 306 181T383 143T510 130Z" />
<glyph unicode="p" horiz-adv-x="1063" d="M655 -15Q565 -15 493 3T370 56T292 139T265 245Q265 303 292 350T370 432T493 485T655 504Q763 504 847 474T980 385T1028 245Q1028 159 980 101T848 14T655 -15ZM565 138Q633 138 681 150T754 185T779 245Q779 298
723 325T565 352Q489 352 426 343T324 311T285 245Q285 203 323 180T425 147T565 138ZM45 490H271L285 300V-200H45V490Z" />
<glyph unicode="q" horiz-adv-x="1098" d="M408 -15Q300 -15 216 14T84 101T35 245Q35 327 83 385T216 473T408 504Q498 504 570 486T693 433T771 351T798 245Q798 187 771 139T693 57T570 4T408 -15ZM498 138Q574 138 637 147T739 179T778 245Q778 287 740 310T638
343T498 352Q396 352 340 325T284 245Q284 209 309 186T382 150T498 138ZM1018 490V-200H778V300L792 490H1018Z" />
<glyph unicode="r" horiz-adv-x="563" d="M45 490H285V0H45V490ZM543 305Q478 305 424 293T332 265T275 232L273 280Q276 301 289 329T324 388T378 445T451 488T543 505V305Z" />
<glyph unicode="s" horiz-adv-x="842" d="M40 176H261Q275 150 314 140T428 130Q485 130 512 136T548 152T557 173Q557 190 539 196T476 204T355 206Q282 206 225 212T127 233T66 274T45 339Q45 387 76 419T160 470T282 497T428 505Q554 505 634 480T752 411T789
314H574Q563 340 533 350T428 360Q358 360 327 350T295 316Q295 301 310 294T369 283T497 280Q555 280 610 276T710 259T781 219T807 145Q807 88 761 53T629 1T428 -15Q327 -15 258 -2T144 32T77 79T46 130T40 176Z" />
<glyph unicode="t" horiz-adv-x="628" d="M20 490H608V340H20V490ZM194 640H434V0H194V640Z" />
<glyph unicode="u" horiz-adv-x="998" d="M953 0H713V490H953V0ZM723 253L725 205Q722 184 706 156T660 98T589 43T493 1T373 -15Q307 -15 248 -2T143 43T71 126T45 258V490H285V283Q285 228 303 198T362 157T465 145Q524 145 574 162T663 205T723 253Z" />
<glyph unicode="v" horiz-adv-x="918" d="M510 90L396 92L648 490H913L564 0H338L5 490H269L510 90Z" />
<glyph unicode="w" horiz-adv-x="1462" d="M1079 92L975 94L1192 490H1457L1148 0H922L669 380L787 379L524 0H298L5 490H269L473 94H370L596 490H861L1079 92Z" />
<glyph unicode="x" horiz-adv-x="980" d="M950 490L550 202L304 0H10L416 300L656 490H950ZM10 490H304L556 307L970 0H676L413 191L10 490Z" />
<glyph unicode="y" horiz-adv-x="930" d="M5 490H260L552 20L345 0L5 490ZM925 490L438 -200H193L402 83L670 490H925Z" />
<glyph unicode="z" horiz-adv-x="896" d="M830 340L289 107L280 150H836V0H60V150L597 383L606 340H60V490H830V340Z" />
<glyph unicode="{" horiz-adv-x="623" d="M130 800H533V650H308Q308 637 316 616T335 569T354 512T362 451Q362 403 321 371T212 322T64 301V321Q144 318 211 301T320 252T362 171Q362 140 354 110T335 54T316 6T308 -28H533V-178H130Q122 -131 132 -81T159 17T191
105T205 171Q205 215 167 238T30 261V361Q128 361 166 384T205 451Q205 477 191 517T160 605T132 703T130 800Z" />
<glyph unicode="|" horiz-adv-x="440" d="M100 800H340V-160H100V800Z" />
<glyph unicode="}" horiz-adv-x="623" d="M418 451Q418 407 457 384T593 361V261Q496 261 457 238T418 171Q418 145 432 105T464 17T491 -81T493 -178H90V-28H315Q315 -15 307 6T288 53T269 110T261 171Q261 220 302 252T412 301T559 321V301Q480 305 412 322T303
371T261 451Q261 482 269 512T288 568T307 616T315 650H90V800H493Q501 754 491 704T464 605T433 517T418 451Z" />
<glyph unicode="~" horiz-adv-x="414" d="M334 348V197H80V348H334Z" />
<glyph unicode="&#xa0;" horiz-adv-x="310" />
<glyph unicode="&#xa1;" horiz-adv-x="394" d="M72 -85V401H322V-85H72ZM324 454H70V605H324V454Z" />
<glyph unicode="&#xa2;" horiz-adv-x="994" d="M739 213H959Q959 141 914 90T772 12T520 -15Q514 -15 508 -15T496 -15L481 -101L422 -90L436 -13Q243 -4 139 55T35 244Q35 335 88 392T251 477T527 505L544 603L603 592L587 504Q783 495 870 436T958 278H738Q724
313 679 333T562 359L522 130H529Q617 130 670 152T739 213ZM280 244Q280 186 328 162T461 132L501 360Q433 359 384 348T307 312T280 244Z" />
<glyph unicode="&#xa3;" horiz-adv-x="1087" d="M35 282V347H716V282H35ZM422 283Q422 250 400 231T347 202T288 191T245 188H999V0H94V188Q94 188 112 188T156 192T209 202T254 223T272 256Q272 266 267 274T254 291Q249 296 253 303T265 317T274 329T268 334Q241
334 205 340T136 361T80 403T57 474Q57 539 114 580T276 640T521 660Q631 660 726 645T894 597T1006 517T1047 404H783Q780 423 745 437T654 459T536 467Q465 467 412 463T329 444T299 401Q299 377 317 363T360 337T403 313T422 283Z" />
<glyph unicode="&#xa4;" horiz-adv-x="926" d="M465 54Q326 54 229 81T81 164T30 303Q30 386 81 441T229 525T465 554Q603 554 699 526T846 442T896 303Q896 220 846 165T700 82T465 54ZM465 194Q560 194 605 225T651 303Q651 349 607 381T465 414Q368 414 322
382T275 303Q275 257 321 226T465 194ZM263 -44L205 -4L283 106L345 73L263 -44ZM670 -44L588 73L649 106L727 -4L670 -44ZM288 495L205 614L263 654L345 536L288 495ZM644 495L587 536L670 654L727 614L644 495Z" />
<glyph unicode="&#xa5;" horiz-adv-x="1070" d="M410 163L5 640H300L629 225H444L770 640H1065L660 163H410ZM410 10V24H660V10H410ZM290 65H780V0H290V65ZM290 175H780V110H290V175Z" />
<glyph unicode="&#xa6;" horiz-adv-x="440" d="M340 245V-160H100V245H340ZM340 800V395H100V800H340Z" />
<glyph unicode="&#xa7;" horiz-adv-x="869" d="M501 242L565 247Q687 236 750 200T814 105Q814 36 727 0T475 -36Q385 -36 311 -22T183 18T103 79T82 155H286Q296 135 339 125T463 114Q538 114 566 124T594 159Q594 176 581 185T531 199T423 205Q283 210 198 225T74
269T35 344Q35 388 76 412T202 441T412 432L330 426Q229 446 170 465T86 509T60 565Q60 633 152 671T407 710Q583 710 681 661T782 522H562Q557 542 520 551T401 560Q345 560 313 552T280 517Q280 498 295 486T350 468T457 458Q584 453 666 437T788 395T829 330Q829
276 751 255T501 242ZM285 341Q285 318 306 304T370 283T481 276Q534 280 556 294T579 336Q579 360 562 374T506 393T399 398Q339 394 312 381T285 341Z" />
<glyph unicode="&#xa8;" horiz-adv-x="558" d="M271 753V602H17V753H271ZM575 753V602H321V753H575Z" />
<glyph unicode="&#xa9;" horiz-adv-x="1628" d="M816 -10Q582 -10 413 31T152 149T60 332Q60 439 150 511T410 619T816 656Q1051 656 1219 620T1477 511T1568 332Q1568 226 1477 149T1218 31T816 -10ZM816 90Q946 90 1058 105T1256 150T1390 225T1438 332Q1438
393 1391 436T1258 505T1060 544T816 556Q684 556 570 544T371 506T238 436T190 332Q190 271 238 226T372 150T571 105T816 90ZM1244 303Q1244 259 1205 227T1075 177T831 160Q602 160 491 197T380 322Q380 381 429 417T578 469T831 486Q984 486 1074 469T1203
420T1243 343H1071Q1058 363 1004 374T831 386Q689 386 626 372T563 322Q563 287 625 274T831 260Q950 260 1004 272T1072 303H1244Z" />
<glyph unicode="&#xaa;" horiz-adv-x="1003" d="M368 276Q270 276 195 302T78 377T35 490Q35 559 77 607T195 680T368 705Q451 705 518 687T635 639T711 572T738 494Q738 452 712 413T636 343T519 294T368 276ZM438 425Q491 425 541 428T631 439T694 459T718 490Q718
509 695 521T631 541T541 552T438 555Q365 555 325 540T284 490Q284 456 324 441T438 425ZM718 690H958V290H732Q732 290 729 312T722 375T718 469V690Z" />
<glyph unicode="&#xab;" horiz-adv-x="774" d="M330 570L439 469L256 280L441 88L330 -11L60 279L330 570ZM692 423L565 284L694 144L584 45L364 284L584 523L692 423Z" />
<glyph unicode="&#xac;" horiz-adv-x="1005" d="M85 440H905V160H715V290H85V440Z" />
<glyph unicode="&#xad;" horiz-adv-x="600" d="M80 347H510V197H80V347Z" />
<glyph unicode="&#xae;" horiz-adv-x="1628" d="M816 39Q582 39 413 80T152 198T60 381Q60 488 150 560T410 668T816 705Q1051 705 1219 669T1477 560T1568 381Q1568 275 1477 198T1218 80T816 39ZM816 139Q946 139 1058 152T1256 195T1390 270T1438 381Q1438
446 1391 489T1258 557T1060 594T816 605Q684 605 570 594T371 558T238 489T190 381Q190 316 238 270T372 195T571 153T816 139ZM525 211V545H992Q1079 545 1126 519T1174 426Q1174 377 1145 354T1039 330Q1092 327 1118 321T1153 303T1162 275V211H1028V258Q1028
275 1018 283T978 295T890 298H660V211H525ZM659 383H1001Q1018 383 1028 389T1039 412Q1039 429 1029 434T1001 439H659V383Z" />
<glyph unicode="&#xaf;" horiz-adv-x="654" d="M100 603V702H554V603H100Z" />
<glyph unicode="&#xb0;" horiz-adv-x="665" d="M333 297Q242 297 176 316T75 374T40 473Q40 533 75 572T176 630T333 650Q424 650 489 631T590 572T625 473Q625 413 590 374T490 316T333 297ZM333 377Q427 377 467 402T508 473Q508 516 468 540T333 565Q239 565
199 541T158 473Q158 427 198 402T333 377Z" />
<glyph unicode="&#xb1;" horiz-adv-x="780" d="M50 225V375H730V225H50ZM50 -10V55H730V-10H50ZM295 110V490H485V110H295Z" />
<glyph unicode="&#xb2;" horiz-adv-x="333" d="M143 461L280 467V400H59V463Q107 499 141 520T192 558T210 597Q210 616 198 628T163 640Q139 640 126 623T119 582H53Q45 617 58 646T101 692T168 710Q224 710 253 680T283 607Q283 556 248 525T143 461Z" />
<glyph unicode="&#xb3;" horiz-adv-x="328" d="M208 549Q278 534 278 473Q278 439 252 411T166 382Q102 382 75 416T50 494H116Q115 481 124 467T166 452Q189 452 199 463T209 490Q209 524 161 524H106V573H161Q185 573 195 583T205 609Q205 642 164 642Q136 642
126 630T116 605H55Q48 647 77 678T166 710Q219 710 246 685T274 620Q274 595 259 576T208 549Z" />
<glyph unicode="&#xb4;" horiz-adv-x="692" d="M100 602L302 752H622L341 602H100Z" />
<glyph unicode="&#xb5;" horiz-adv-x="1063" d="M1043 0Q920 0 848 19T744 77T713 170V490H953V250Q953 224 964 211T995 194T1043 190V0ZM723 253L725 205Q722 184 712 156T683 98T635 43T563 1T463 -15Q376 -15 326 21T258 134L285 173V-200H45V490H285V303Q285
238 310 204T379 158T475 145Q534 145 583 162T668 205T723 253Z" />
<glyph unicode="&#xb6;" horiz-adv-x="1103" d="M1033 640V0H793V166H674V0H434V166H373Q264 166 188 189T71 263T30 400Q30 485 68 538T180 615T363 640H1033ZM360 341H793V440H360Q330 440 305 431T280 391Q280 359 304 350T360 341Z" />
<glyph unicode="&#xb7;" horiz-adv-x="354" d="M304 348V197H50V348H304Z" />
<glyph unicode="&#xb8;" horiz-adv-x="694" d="M477 19V-151L377 -28Q424 -35 468 -41T548 -59T603 -88T624 -138Q624 -193 556 -226T360 -260Q278 -260 222 -239T135 -182T100 -109H274Q277 -112 284 -119T308 -133T354 -140Q383 -140 397 -133T412 -112Q412
-104 406 -96T378 -79T307 -65V19H477Z" />
<glyph unicode="&#xb9;" horiz-adv-x="247" d="M40 636V700H187V400H119V636H40Z" />
<glyph unicode="&#xba;" horiz-adv-x="1016" d="M510 275Q371 275 274 296T126 364T75 489Q75 567 126 614T274 683T510 705Q648 705 744 684T891 615T941 489Q941 411 891 364T745 296T510 275ZM510 417Q586 417 627 426T685 452T701 489Q701 510 686 526T629
553T510 563Q433 563 391 554T332 527T315 489Q315 468 331 452T389 427T510 417Z" />
<glyph unicode="&#xbb;" horiz-adv-x="774" d="M335 469L443 570L714 279L443 -11L333 88L518 280L335 469ZM81 423L190 523L409 284L190 45L80 144L209 284L81 423Z" />
<glyph unicode="&#xbc;" horiz-adv-x="1396" d="M25 240V375H229V507H25V642H429V375H599V240H25ZM909 700L963 670L581 -20L529 12L909 700ZM1077 0V63H773V195L1112 401H1287V173H1366V63H1287V0H1077ZM957 160H1087V264L957 160Z" />
<glyph unicode="&#xbd;" horiz-adv-x="1463" d="M25 240V375H229V507H25V642H429V375H599V240H25ZM909 700L963 670L581 -20L529 12L909 700ZM1412 0H842V129Q949 144 1019 155T1131 176T1193 195T1219 212T1225 231Q1225 265 1143 265Q1067 265 1034 253T992
224H818Q818 274 850 318T952 389T1137 416Q1219 416 1283 404T1385 362T1423 280Q1423 235 1397 209T1320 169T1194 145L1058 129L1412 139V0Z" />
<glyph unicode="&#xbe;" horiz-adv-x="1420" d="M459 431Q515 430 557 425T624 403T648 346Q648 279 569 250T343 220Q244 220 175 237T71 291T35 386H178Q180 367 221 360T340 353Q408 353 437 358T466 383Q466 403 434 407T340 411H204V451H340Q408 451 433
458T458 482Q458 496 434 502T340 509Q264 509 223 501T179 481H37Q37 544 78 582T187 638T336 656Q488 656 562 625T637 532Q637 484 588 460T459 431ZM933 700L987 670L605 -20L553 12L933 700ZM1101 0V63H797V195L1136 401H1311V173H1390V63H1311V0H1101ZM981
160H1111V264L981 160Z" />
<glyph unicode="&#xbf;" horiz-adv-x="864" d="M326 450V601H580V450H326ZM588 147H823Q826 126 818 95T787 29T719 -35T607 -85T441 -104Q327 -104 250 -84T127 -28T60 58T40 165Q40 244 82 296T194 374T348 400V400H578V250H441Q358 250 324 232T290 175Q290
129 327 113T441 96Q500 96 530 104T572 125T588 147Z" />
<glyph unicode="&#xc0;" horiz-adv-x="1160" d="M234 97V247H918V97H234ZM10 0L439 640H717L1150 0H875L504 573H653L285 0H10ZM478 692L197 842H517L719 692H478Z" />
<glyph unicode="&#xc1;" horiz-adv-x="1160" d="M234 97V247H918V97H234ZM10 0L439 640H717L1150 0H875L504 573H653L285 0H10ZM441 692L643 842H963L682 692H441Z" />
<glyph unicode="&#xc2;" horiz-adv-x="1160" d="M234 97V247H918V97H234ZM10 0L439 640H717L1150 0H875L504 573H653L285 0H10ZM718 842L940 692H698L484 815L672 814L457 692H216L438 842H718Z" />
<glyph unicode="&#xc3;" horiz-adv-x="1160" d="M234 97V247H918V97H234ZM10 0L439 640H717L1150 0H875L504 573H653L285 0H10ZM712 685Q673 685 641 693T579 712T521 731T460 740Q436 740 419 734T389 717T360 690H210Q229 728 260 762T338 818T445 840Q485 840
516 832T576 813T631 794T691 785Q719 785 738 792T771 810T797 835H947Q929 798 897 764T820 707T712 685Z" />
<glyph unicode="&#xc4;" horiz-adv-x="1160" d="M234 97V247H918V97H234ZM10 0L439 640H717L1150 0H875L504 573H653L285 0H10ZM296 663V512H42V663H296ZM1123 663V512H869V663H1123Z" />
<glyph unicode="&#xc5;" horiz-adv-x="1160" d="M234 97V247H918V97H234ZM10 0L439 640H717L1150 0H875L504 573H653L285 0H10ZM578 667Q492 667 451 697T409 779Q409 829 450 859T578 890Q663 890 705 860T747 779Q747 728 705 698T578 667ZM578 732Q618 732
634 742T651 779Q651 805 635 815T578 825Q537 825 521 815T504 779Q504 752 520 742T578 732Z" />
<glyph unicode="&#xc6;" horiz-adv-x="1681" d="M861 270V190H1621V0H611V598L671 580L282 0H10L454 640H1619V450H861V370H1481V270H861ZM234 137V287H828V137H234Z" />
<glyph unicode="&#xc7;" horiz-adv-x="1316" d="M565 -109Q568 -112 575 -119T599 -133T645 -140Q674 -140 688 -133T703 -112Q703 -104 697 -96T669 -79T598 -65L763 -42Q806 -49 840 -59T894 -88T915 -138Q915 -193 847 -226T651 -260Q569 -260 513 -239T426
-182T391 -109H565ZM598 19H768V-67L598 -65V19ZM1255 267Q1250 172 1186 108T998 12T683 -20Q538 -20 423 -5T227 48T103 151T60 315Q60 414 103 480T227 586T423 643T683 660Q873 660 998 626T1187 524T1256 361H996Q984 393 952 417T856 456T683 470Q555 470
475 455T358 405T321 315Q321 264 358 232T475 185T683 170Q792 170 855 183T951 218T995 267H1255Z" />
<glyph unicode="&#xc8;" horiz-adv-x="1140" d="M320 270V190H1080V0H70V640H1078V450H320V370H940V270H320ZM495 692L214 842H534L736 692H495Z" />
<glyph unicode="&#xc9;" horiz-adv-x="1140" d="M320 270V190H1080V0H70V640H1078V450H320V370H940V270H320ZM458 692L660 842H980L699 692H458Z" />
<glyph unicode="&#xca;" horiz-adv-x="1140" d="M320 270V190H1080V0H70V640H1078V450H320V370H940V270H320ZM735 842L957 692H715L501 815L689 814L474 692H233L455 842H735Z" />
<glyph unicode="&#xcb;" horiz-adv-x="1140" d="M320 270V190H1080V0H70V640H1078V450H320V370H940V270H320ZM570 843V692H316V843H570ZM874 843V692H620V843H874Z" />
<glyph unicode="&#xcc;" horiz-adv-x="420" d="M85 640H335V0H85V640ZM110 692L-171 842H149L351 692H110Z" />
<glyph unicode="&#xcd;" horiz-adv-x="420" d="M85 640H335V0H85V640ZM329 692L531 842H851L570 692H329Z" />
<glyph unicode="&#xce;" horiz-adv-x="420" d="M85 640H335V0H85V640ZM350 842L572 692H330L116 815L304 814L89 692H-152L70 842H350Z" />
<glyph unicode="&#xcf;" horiz-adv-x="420" d="M85 640H335V0H85V640ZM441 843V692H187V843H441ZM745 843V692H491V843H745Z" />
<glyph unicode="&#xd0;" horiz-adv-x="1302" d="M790 640Q925 640 1013 614T1151 543T1221 441T1242 320Q1242 257 1219 200T1144 97T1005 26T790 0H70V640H790ZM320 200H780Q836 200 875 207T937 230T971 267T982 320Q982 350 972 372T938 410T875 432T780 440H320V200ZM240
618H730V553H240V618Z" />
<glyph unicode="&#xd1;" horiz-adv-x="1300" d="M1073 196L980 143V640H1230V0H980L227 436L320 490V0H70V640H320L1073 196ZM783 685Q744 685 712 693T650 712T592 731T531 740Q507 740 490 734T460 717T431 690H281Q300 728 331 762T409 818T516 840Q556 840
587 832T647 813T702 794T762 785Q790 785 809 792T842 810T868 835H1018Q1000 798 968 764T891 707T783 685Z" />
<glyph unicode="&#xd2;" horiz-adv-x="1330" d="M665 -20Q447 -20 314 18T121 132T60 320Q60 432 120 507T314 621T665 660Q883 660 1016 622T1209 508T1270 320Q1270 208 1210 133T1016 19T665 -20ZM665 170Q768 170 843 182T959 227T1000 320Q1000 380 959 412T843
457T665 470Q562 470 485 458T364 413T320 320Q320 260 363 228T484 183T665 170ZM565 702L284 852H604L806 702H565Z" />
<glyph unicode="&#xd3;" horiz-adv-x="1330" d="M665 -20Q447 -20 314 18T121 132T60 320Q60 432 120 507T314 621T665 660Q883 660 1016 622T1209 508T1270 320Q1270 208 1210 133T1016 19T665 -20ZM665 170Q768 170 843 182T959 227T1000 320Q1000 380 959 412T843
457T665 470Q562 470 485 458T364 413T320 320Q320 260 363 228T484 183T665 170ZM528 702L730 852H1050L769 702H528Z" />
<glyph unicode="&#xd4;" horiz-adv-x="1330" d="M665 -20Q447 -20 314 18T121 132T60 320Q60 432 120 507T314 621T665 660Q883 660 1016 622T1209 508T1270 320Q1270 208 1210 133T1016 19T665 -20ZM665 170Q768 170 843 182T959 227T1000 320Q1000 380 959 412T843
457T665 470Q562 470 485 458T364 413T320 320Q320 260 363 228T484 183T665 170ZM805 852L1027 702H785L571 825L759 824L544 702H303L525 852H805Z" />
<glyph unicode="&#xd5;" horiz-adv-x="1330" d="M665 -20Q447 -20 314 18T121 132T60 320Q60 432 120 507T314 621T665 660Q883 660 1016 622T1209 508T1270 320Q1270 208 1210 133T1016 19T665 -20ZM665 170Q768 170 843 182T959 227T1000 320Q1000 380 959 412T843
457T665 470Q562 470 485 458T364 413T320 320Q320 260 363 228T484 183T665 170ZM799 695Q760 695 728 703T666 722T608 741T547 750Q523 750 506 744T476 727T447 700H297Q316 738 347 772T425 828T532 850Q572 850 603 842T663 823T718 804T778 795Q806 795
825 802T858 820T884 845H1034Q1016 808 984 774T907 717T799 695Z" />
<glyph unicode="&#xd6;" horiz-adv-x="1330" d="M665 -20Q447 -20 314 18T121 132T60 320Q60 432 120 507T314 621T665 660Q883 660 1016 622T1209 508T1270 320Q1270 208 1210 133T1016 19T665 -20ZM665 170Q768 170 843 182T959 227T1000 320Q1000 380 959 412T843
457T665 470Q562 470 485 458T364 413T320 320Q320 260 363 228T484 183T665 170ZM659 853V702H405V853H659ZM964 853V702H710V853H964Z" />
<glyph unicode="&#xd7;" horiz-adv-x="711" d="M185 -26L631 420L525 526L79 80L185 -26ZM525 -26L631 80L185 526L79 420L525 -26Z" />
<glyph unicode="&#xd8;" horiz-adv-x="1330" d="M665 -20Q447 -20 314 18T121 132T60 320Q60 432 120 507T314 621T665 660Q883 660 1016 622T1209 508T1270 320Q1270 208 1210 133T1016 19T665 -20ZM665 170Q768 170 843 182T959 227T1000 320Q1000 380 959 412T843
457T665 470Q562 470 485 458T364 413T320 320Q320 260 363 228T484 183T665 170ZM855 727L909 697L474 -88L422 -56L855 727Z" />
<glyph unicode="&#xd9;" horiz-adv-x="1289" d="M969 365V640H1219V320Q1219 235 1188 176T1100 78T971 18T815 -11T645 -20Q554 -20 469 -12T312 18T185 77T101 175T70 320V640H320V365Q320 285 359 243T470 186T645 170Q744 170 817 185T929 243T969 365ZM545
692L264 842H584L786 692H545Z" />
<glyph unicode="&#xda;" horiz-adv-x="1289" d="M969 365V640H1219V320Q1219 235 1188 176T1100 78T971 18T815 -11T645 -20Q554 -20 469 -12T312 18T185 77T101 175T70 320V640H320V365Q320 285 359 243T470 186T645 170Q744 170 817 185T929 243T969 365ZM508
692L710 842H1030L749 692H508Z" />
<glyph unicode="&#xdb;" horiz-adv-x="1289" d="M969 365V640H1219V320Q1219 235 1188 176T1100 78T971 18T815 -11T645 -20Q554 -20 469 -12T312 18T185 77T101 175T70 320V640H320V365Q320 285 359 243T470 186T645 170Q744 170 817 185T929 243T969 365ZM785
842L1007 692H765L551 815L739 814L524 692H283L505 842H785Z" />
<glyph unicode="&#xdc;" horiz-adv-x="1289" d="M969 365V640H1219V320Q1219 235 1188 176T1100 78T971 18T815 -11T645 -20Q554 -20 469 -12T312 18T185 77T101 175T70 320V640H320V365Q320 285 359 243T470 186T645 170Q744 170 817 185T929 243T969 365ZM619
641V490H365V641H619ZM923 641V490H669V641H923Z" />
<glyph unicode="&#xdd;" horiz-adv-x="1070" d="M1065 640L660 163V0H410V163L5 640H300L629 225H444L770 640H1065ZM398 692L600 842H920L639 692H398Z" />
<glyph unicode="&#xde;" horiz-adv-x="1097" d="M682 550Q757 550 822 543T937 512T1014 443T1042 320Q1042 243 1014 197T937 128T823 98T682 90H282V270H721Q751 270 771 279T792 320Q792 352 772 361T721 370H282V550H682ZM68 640H318V0H68V640Z" />
<glyph unicode="&#xdf;" horiz-adv-x="1138" d="M509 -200V-46Q630 -46 704 -45T817 -37T869 -18T883 17Q883 40 870 52T821 71T717 78T539 80H509V224L813 352L821 310H279V460H1052V340L699 151L698 205Q781 204 857 197T995 172T1092 118T1128 26Q1128 -52
1081 -97T948 -165T751 -193T509 -200ZM55 0V510Q55 570 77 610T152 670T295 690H559V530H365Q326 530 311 513T295 459V0H55Z" />
<glyph unicode="&#xe0;" horiz-adv-x="1063" d="M408 -14Q300 -14 216 16T84 105T35 245Q35 331 83 389T216 476T408 505Q528 505 615 473T750 382T798 245Q798 187 771 140T693 58T570 5T408 -14ZM498 138Q574 138 637 147T739 180T778 245Q778 288 740 311T638
343T498 352Q396 352 340 326T284 245Q284 210 309 186T382 150T498 138ZM778 490H1018V0H792Q792 0 789 23T782 89T778 190V490ZM414 602L133 752H453L655 602H414Z" />
<glyph unicode="&#xe1;" horiz-adv-x="1063" d="M408 -14Q300 -14 216 16T84 105T35 245Q35 331 83 389T216 476T408 505Q528 505 615 473T750 382T798 245Q798 187 771 140T693 58T570 5T408 -14ZM498 138Q574 138 637 147T739 180T778 245Q778 288 740 311T638
343T498 352Q396 352 340 326T284 245Q284 210 309 186T382 150T498 138ZM778 490H1018V0H792Q792 0 789 23T782 89T778 190V490ZM377 602L579 752H899L618 602H377Z" />
<glyph unicode="&#xe2;" horiz-adv-x="1063" d="M408 -14Q300 -14 216 16T84 105T35 245Q35 331 83 389T216 476T408 505Q528 505 615 473T750 382T798 245Q798 187 771 140T693 58T570 5T408 -14ZM498 138Q574 138 637 147T739 180T778 245Q778 288 740 311T638
343T498 352Q396 352 340 326T284 245Q284 210 309 186T382 150T498 138ZM778 490H1018V0H792Q792 0 789 23T782 89T778 190V490ZM654 752L876 602H634L420 725L608 724L393 602H152L374 752H654Z" />
<glyph unicode="&#xe3;" horiz-adv-x="1063" d="M408 -14Q300 -14 216 16T84 105T35 245Q35 331 83 389T216 476T408 505Q528 505 615 473T750 382T798 245Q798 187 771 140T693 58T570 5T408 -14ZM498 138Q574 138 637 147T739 180T778 245Q778 288 740 311T638
343T498 352Q396 352 340 326T284 245Q284 210 309 186T382 150T498 138ZM778 490H1018V0H792Q792 0 789 23T782 89T778 190V490ZM648 595Q609 595 577 603T515 622T457 641T396 650Q372 650 355 644T325 627T296 600H146Q165 638 196 672T274 728T381 750Q421
750 452 742T512 723T567 704T627 695Q655 695 674 702T707 720T733 745H883Q865 708 833 674T756 617T648 595Z" />
<glyph unicode="&#xe4;" horiz-adv-x="1063" d="M408 -14Q300 -14 216 16T84 105T35 245Q35 331 83 389T216 476T408 505Q528 505 615 473T750 382T798 245Q798 187 771 140T693 58T570 5T408 -14ZM498 138Q574 138 637 147T739 180T778 245Q778 288 740 311T638
343T498 352Q396 352 340 326T284 245Q284 210 309 186T382 150T498 138ZM778 490H1018V0H792Q792 0 789 23T782 89T778 190V490ZM489 753V602H235V753H489ZM793 753V602H539V753H793Z" />
<glyph unicode="&#xe5;" horiz-adv-x="1063" d="M408 -14Q300 -14 216 16T84 105T35 245Q35 331 83 389T216 476T408 505Q528 505 615 473T750 382T798 245Q798 187 771 140T693 58T570 5T408 -14ZM498 138Q574 138 637 147T739 180T778 245Q778 288 740 311T638
343T498 352Q396 352 340 326T284 245Q284 210 309 186T382 150T498 138ZM778 490H1018V0H792Q792 0 789 23T782 89T778 190V490ZM514 577Q428 577 387 607T345 689Q345 739 386 769T514 800Q599 800 641 770T683 689Q683 638 641 608T514 577ZM514 642Q554 642
570 652T587 689Q587 715 571 725T514 735Q473 735 457 725T440 689Q440 662 456 652T514 642Z" />
<glyph unicode="&#xe6;" horiz-adv-x="1915" d="M408 -14Q300 -14 216 16T84 105T35 245Q35 331 83 389T216 476T408 505Q528 505 615 473T750 382T798 245Q798 187 771 140T693 58T570 5T408 -14ZM498 138Q574 138 637 147T739 180T778 245Q778 288 740 311T638
343T498 352Q396 352 340 326T284 245Q284 210 309 186T382 150T498 138ZM778 490H1018V0H792Q788 23 783 74T778 190V490ZM1642 174H1878Q1869 116 1821 73T1680 7T1444 -17Q1293 -17 1184 7T1015 88T956 242Q956 338 1013 395T1180 478T1444 503Q1596 503 1693
476T1836 389T1880 225H1200Q1205 199 1228 177T1301 142T1434 128Q1520 128 1575 140T1642 174ZM1434 358Q1328 358 1273 335T1207 289H1647Q1640 315 1591 336T1434 358Z" />
<glyph unicode="&#xe7;" horiz-adv-x="994" d="M400 -119Q403 -122 410 -129T434 -143T480 -150Q509 -150 523 -143T538 -122Q538 -114 532 -106T504 -89T433 -75L598 -52Q641 -59 675 -69T729 -98T750 -148Q750 -203 682 -236T486 -270Q404 -270 348 -249T261
-192T226 -119H400ZM433 9H603V-95L433 -75V9ZM959 213Q959 141 914 90T772 12T520 -15Q365 -15 257 10T92 92T35 244Q35 339 91 396T256 479T520 505Q675 505 771 478T912 400T958 278H738Q722 317 666 338T520 360Q447 360 393 350T310 314T280 244Q280 200 309
175T392 140T520 130Q610 130 666 151T739 213H959Z" />
<glyph unicode="&#xe8;" horiz-adv-x="994" d="M721 176H957Q948 118 900 75T759 9T523 -15Q372 -15 263 9T94 90T35 244Q35 340 92 397T259 480T523 505Q675 505 772 478T915 391T959 227H279Q284 201 307 179T380 144T513 130Q599 130 654 142T721 176ZM513
360Q407 360 352 337T286 291H726Q719 317 670 338T513 360ZM413 602L132 752H452L654 602H413Z" />
<glyph unicode="&#xe9;" horiz-adv-x="994" d="M721 176H957Q948 118 900 75T759 9T523 -15Q372 -15 263 9T94 90T35 244Q35 340 92 397T259 480T523 505Q675 505 772 478T915 391T959 227H279Q284 201 307 179T380 144T513 130Q599 130 654 142T721 176ZM513
360Q407 360 352 337T286 291H726Q719 317 670 338T513 360ZM376 602L578 752H898L617 602H376Z" />
<glyph unicode="&#xea;" horiz-adv-x="994" d="M721 176H957Q948 118 900 75T759 9T523 -15Q372 -15 263 9T94 90T35 244Q35 340 92 397T259 480T523 505Q675 505 772 478T915 391T959 227H279Q284 201 307 179T380 144T513 130Q599 130 654 142T721 176ZM513
360Q407 360 352 337T286 291H726Q719 317 670 338T513 360ZM653 752L875 602H633L419 725L607 724L392 602H151L373 752H653Z" />
<glyph unicode="&#xeb;" horiz-adv-x="994" d="M721 176H957Q948 118 900 75T759 9T523 -15Q372 -15 263 9T94 90T35 244Q35 340 92 397T259 480T523 505Q675 505 772 478T915 391T959 227H279Q284 201 307 179T380 144T513 130Q599 130 654 142T721 176ZM513
360Q407 360 352 337T286 291H726Q719 317 670 338T513 360ZM488 753V602H234V753H488ZM792 753V602H538V753H792Z" />
<glyph unicode="&#xec;" horiz-adv-x="350" d="M55 490H295V0H55V490ZM75 597L-206 747H114L316 597H75Z" />
<glyph unicode="&#xed;" horiz-adv-x="350" d="M55 490H295V0H55V490ZM294 853L496 1003H816L535 853H294Z" />
<glyph unicode="&#xee;" horiz-adv-x="350" d="M55 490H295V0H55V490ZM315 747L537 597H295L81 720L269 719L54 597H-187L35 747H315Z" />
<glyph unicode="&#xef;" horiz-adv-x="200" d="M55 490H295V0H55V490ZM221 753V602H-33V753H221ZM354 753V602H100V753H354Z" />
<glyph unicode="&#xf0;" horiz-adv-x="1008" d="M518 138Q557 138 602 141T688 155T753 185T779 239Q779 266 752 283T682 310T593 323T508 327Q406 327 345 306T284 234Q284 178 346 158T518 138ZM909 705L988 623L785 450L708 531L909 705ZM256 552V705Q402
705 512 684T701 628T832 548T914 456T956 364T969 283Q969 211 943 160T869 74T762 21T634 -7T498 -15Q350 -15 247 16T89 105T35 245Q35 310 62 354T138 424T251 463T388 475Q488 475 571 456T711 399T789 307L774 302Q765 362 734 408T643 487T488 535T256 552Z"
/>
<glyph unicode="&#xf1;" horiz-adv-x="998" d="M45 490H285V0H45V490ZM645 505Q704 505 759 493T857 450T927 368T953 237V0H713V207Q713 282 674 313T533 345Q479 345 429 333T338 305T275 272L273 310Q277 328 300 360T369 426T482 482T645 505ZM683 595Q644
595 612 603T550 622T492 641T431 650Q407 650 390 644T360 627T331 600H181Q200 638 231 672T309 728T416 750Q456 750 487 742T547 723T602 704T662 695Q690 695 709 702T742 720T768 745H918Q900 708 868 674T791 617T683 595Z" />
<glyph unicode="&#xf2;" horiz-adv-x="1016" d="M510 -15Q351 -15 246 11T88 94T35 244Q35 337 87 394T245 478T510 505Q668 505 772 479T929 395T981 244Q981 151 929 94T773 11T510 -15ZM510 130Q584 130 634 142T710 180T736 244Q736 282 711 308T635 347T510
360Q436 360 385 347T307 309T280 244Q280 206 306 181T383 143T510 130ZM410 602L129 752H449L651 602H410Z" />
<glyph unicode="&#xf3;" horiz-adv-x="1016" d="M510 -15Q351 -15 246 11T88 94T35 244Q35 337 87 394T245 478T510 505Q668 505 772 479T929 395T981 244Q981 151 929 94T773 11T510 -15ZM510 130Q584 130 634 142T710 180T736 244Q736 282 711 308T635 347T510
360Q436 360 385 347T307 309T280 244Q280 206 306 181T383 143T510 130ZM373 602L575 752H895L614 602H373Z" />
<glyph unicode="&#xf4;" horiz-adv-x="1016" d="M510 -15Q351 -15 246 11T88 94T35 244Q35 337 87 394T245 478T510 505Q668 505 772 479T929 395T981 244Q981 151 929 94T773 11T510 -15ZM510 130Q584 130 634 142T710 180T736 244Q736 282 711 308T635 347T510
360Q436 360 385 347T307 309T280 244Q280 206 306 181T383 143T510 130ZM650 752L872 602H630L416 725L604 724L389 602H148L370 752H650Z" />
<glyph unicode="&#xf5;" horiz-adv-x="1016" d="M510 -15Q351 -15 246 11T88 94T35 244Q35 337 87 394T245 478T510 505Q668 505 772 479T929 395T981 244Q981 151 929 94T773 11T510 -15ZM510 130Q584 130 634 142T710 180T736 244Q736 282 711 308T635 347T510
360Q436 360 385 347T307 309T280 244Q280 206 306 181T383 143T510 130ZM644 595Q605 595 573 603T511 622T453 641T392 650Q368 650 351 644T321 627T292 600H142Q161 638 192 672T270 728T377 750Q417 750 448 742T508 723T563 704T623 695Q651 695 670 702T703
720T729 745H879Q861 708 829 674T752 617T644 595Z" />
<glyph unicode="&#xf6;" horiz-adv-x="1016" d="M510 -15Q351 -15 246 11T88 94T35 244Q35 337 87 394T245 478T510 505Q668 505 772 479T929 395T981 244Q981 151 929 94T773 11T510 -15ZM510 130Q584 130 634 142T710 180T736 244Q736 282 711 308T635 347T510
360Q436 360 385 347T307 309T280 244Q280 206 306 181T383 143T510 130ZM485 753V602H231V753H485ZM789 753V602H535V753H789Z" />
<glyph unicode="&#xf7;" horiz-adv-x="640" d="M50 335H590V185H50V335ZM447 115V15H193V115H447ZM447 505V404H193V505H447Z" />
<glyph unicode="&#xf8;" horiz-adv-x="1016" d="M669 582L723 552L345 -87L293 -55L669 582ZM510 -15Q351 -15 246 11T88 94T35 244Q35 337 87 394T245 478T510 505Q668 505 772 479T929 395T981 244Q981 151 929 94T773 11T510 -15ZM510 130Q584 130 634 142T710
180T736 244Q736 282 711 308T635 347T510 360Q436 360 385 347T307 309T280 244Q280 206 306 181T383 143T510 130Z" />
<glyph unicode="&#xf9;" horiz-adv-x="998" d="M953 0H713V490H953V0ZM723 253L725 205Q722 184 706 156T660 98T589 43T493 1T373 -15Q307 -15 248 -2T143 43T71 126T45 258V490H285V283Q285 228 303 198T362 157T465 145Q524 145 574 162T663 205T723 253ZM413
602L132 752H452L654 602H413Z" />
<glyph unicode="&#xfa;" horiz-adv-x="998" d="M953 0H713V490H953V0ZM723 253L725 205Q722 184 706 156T660 98T589 43T493 1T373 -15Q307 -15 248 -2T143 43T71 126T45 258V490H285V283Q285 228 303 198T362 157T465 145Q524 145 574 162T663 205T723 253ZM376
602L578 752H898L617 602H376Z" />
<glyph unicode="&#xfb;" horiz-adv-x="998" d="M953 0H713V490H953V0ZM723 253L725 205Q722 184 706 156T660 98T589 43T493 1T373 -15Q307 -15 248 -2T143 43T71 126T45 258V490H285V283Q285 228 303 198T362 157T465 145Q524 145 574 162T663 205T723 253ZM653
752L875 602H633L419 725L607 724L392 602H151L373 752H653Z" />
<glyph unicode="&#xfc;" horiz-adv-x="998" d="M953 0H713V490H953V0ZM723 253L725 205Q722 184 706 156T660 98T589 43T493 1T373 -15Q307 -15 248 -2T143 43T71 126T45 258V490H285V283Q285 228 303 198T362 157T465 145Q524 145 574 162T663 205T723 253ZM488
753V602H234V753H488ZM792 753V602H538V753H792Z" />
<glyph unicode="&#xfd;" horiz-adv-x="930" d="M5 490H260L552 20L345 0L5 490ZM925 490L438 -200H193L402 83L670 490H925ZM338 602L540 752H860L579 602H338Z" />
<glyph unicode="&#xfe;" horiz-adv-x="1063" d="M655 -15Q565 -15 493 3T370 56T292 139T265 245Q265 303 292 350T370 432T493 485T655 504Q763 504 847 474T980 385T1028 245Q1028 159 980 101T848 14T655 -15ZM565 138Q633 138 681 150T754 185T779 245Q779
298 723 325T565 352Q489 352 426 343T324 311T285 245Q285 203 323 180T425 147T565 138ZM45 690H285V300V-200H45V690Z" />
<glyph unicode="&#xff;" horiz-adv-x="930" d="M5 490H260L552 20L345 0L5 490ZM925 490L438 -200H193L402 83L670 490H925ZM450 753V602H196V753H450ZM754 753V602H500V753H754Z" />
<glyph unicode="&#x2013;" horiz-adv-x="700" d="M80 347H620V197H80V347Z" />
<glyph unicode="&#x2014;" horiz-adv-x="940" d="M60 347H880V197H60V347Z" />
<glyph unicode="&#x2018;" horiz-adv-x="303" d="M250 711L264 649Q248 641 231 614T210 555L278 544V391H25V484Q25 576 78 637T250 711Z" />
<glyph unicode="&#x2019;" horiz-adv-x="303" d="M53 341L39 403Q55 411 72 438T93 497L25 508V661H278V568Q278 477 225 416T53 341Z" />
<glyph unicode="&#x201a;" horiz-adv-x="303" d="M53 -167L39 -105Q55 -97 72 -70T93 -11L25 0V153H278V60Q278 -31 225 -92T53 -167Z" />
<glyph unicode="&#x201c;" horiz-adv-x="606" d="M250 711L264 649Q248 641 231 614T210 555L278 544V391H25V484Q25 576 78 637T250 711ZM553 711L567 649Q551 641 534 614T513 555L581 544V391H328V484Q328 576 381 637T553 711Z" />
<glyph unicode="&#x201d;" horiz-adv-x="606" d="M53 341L39 403Q55 411 72 438T93 497L25 508V661H278V568Q278 477 225 416T53 341ZM356 341L342 403Q358 411 375 438T396 497L328 508V661H581V568Q581 477 528 416T356 341Z" />
<glyph unicode="&#x201e;" horiz-adv-x="606" d="M53 -167L39 -105Q55 -97 72 -70T93 -11L25 0V153H278V60Q278 -31 225 -92T53 -167ZM356 -167L342 -105Q358 -97 375 -70T396 -11L328 0V153H581V60Q581 -31 528 -92T356 -167Z" />
<glyph unicode="&#x2022;" horiz-adv-x="478" d="M90 411H388V113H90V411Z" />
<glyph unicode="&#x2039;" horiz-adv-x="491" d="M60 279L330 570L439 469L165 185L60 279ZM60 279L165 374L441 88L330 -11L60 279Z" />
<glyph unicode="&#x203a;" horiz-adv-x="491" d="M431 279L326 185L51 469L160 570L431 279ZM431 279L160 -11L50 88L326 374L431 279Z" />
</font>
</defs>
</svg>
